<svg width="157" height="116" viewBox="0 0 157 116" fill="none" xmlns="http://www.w3.org/2000/svg">
<path d="M70.6056 49.0026C67.5761 47.7513 64.7023 46.4348 62.0307 45.0873C62.7673 46.6138 63.7875 48.127 64.9443 49.7748C66.6787 50.8738 68.5842 51.782 70.3757 52.1754C74.2905 53.0319 77.5949 53.8306 81.5236 53.0112C81.5357 52.9919 81.5478 52.9742 81.5616 52.9564C78.0411 51.8707 74.351 50.5484 70.6056 49.0026Z" fill="white"/>
<path d="M70.7855 23.1364C68.4079 22.2489 62.6048 23.9041 62.6048 23.9041L57.6767 20.7831L56.4715 21.0552L59.1897 24.9085L54.5625 26.2693L51.7543 24.7177L50.0632 25.1673L52.197 26.7589H51.2407L50.8828 27.1228L53.0425 27.389L53.4869 27.7204L59.8036 26.2945L59.6791 30.1092L60.886 29.8371L63.1115 25.5475L70.7544 23.8213C71.7884 23.5891 71.2074 23.2932 70.7855 23.1364Z" fill="#FF1616"/>
<path d="M50.3052 27.1687C47.089 27.4955 44.9206 28.4008 44.2583 29.9051C42.3424 34.2524 53.729 41.9514 69.6892 47.1019C85.6494 52.2538 100.14 52.9047 102.054 48.5589C103.275 45.7884 99.0919 41.6571 91.7672 37.69C103.021 42.8848 109.93 48.6181 108.36 52.1814C106.228 57.0197 89.2789 56.0287 70.5019 49.9685C51.7231 43.9084 38.2287 35.0733 40.3591 30.235C41.2772 28.1538 44.9379 27.1524 50.3052 27.1687Z" fill="#EFCB3B"/>
<path d="M70.0938 46.0857C74.6727 47.9746 79.1616 49.4567 83.2701 50.4951C85.8517 46.8312 87.9008 43.9128 87.9008 40.1868C87.9008 33.7864 81.8383 28.596 74.3597 28.596C66.881 28.596 60.8203 33.7864 60.8203 40.1868C60.8203 40.7282 60.8635 41.2518 60.9448 41.7621C63.7184 43.2605 66.7946 44.7234 70.0938 46.0857Z" fill="#007B35"/>
<path d="M64.9443 49.7747C68.088 54.2611 72.231 59.7606 74.3596 69.3456C76.0075 61.9291 78.8607 56.9591 81.5236 53.0112C77.9148 52.5452 74.1003 51.8855 70.1837 51.0291C68.3923 50.6371 66.6424 50.217 64.9443 49.7747Z" fill="#FF1616"/>
</svg>
